<?xml version="1.0" encoding="iso-8859-1"?>
<!-- Generator: Adobe Illustrator 19.0.0, SVG Export Plug-In . SVG Version: 6.00 Build 0)  -->
<svg version="1.1" id="Capa_1" xmlns="http://www.w3.org/2000/svg" xmlns:xlink="http://www.w3.org/1999/xlink" x="0px" y="0px"
	 viewBox="0 0 512.001 512.001" style="enable-background:new 0 0 512.001 512.001;" xml:space="preserve">
<g>
	<path style="fill:#56525B;" d="M141.02,442.889c-4.143,0-7.5-3.357-7.5-7.5V36.571c0-4.143,3.357-7.5,7.5-7.5s7.5,3.357,7.5,7.5
		v398.817C148.52,439.531,145.162,442.889,141.02,442.889z"/>
	<path style="fill:#56525B;" d="M256,442.889c-4.143,0-7.5-3.357-7.5-7.5V36.571c0-4.143,3.357-7.5,7.5-7.5s7.5,3.357,7.5,7.5
		v398.817C263.5,439.531,260.143,442.889,256,442.889z"/>
	<path style="fill:#56525B;" d="M370.865,442.889c-4.143,0-7.5-3.357-7.5-7.5V36.571c0-4.143,3.357-7.5,7.5-7.5s7.5,3.357,7.5,7.5
		v398.817C378.365,439.531,375.008,442.889,370.865,442.889z"/>
</g>
<g>
	<rect x="63.36" y="21.12" style="fill:#686370;" width="385.29" height="30.905"/>
	<rect x="63.36" y="421.05" style="fill:#686370;" width="385.29" height="30.905"/>
</g>
<g>
	<rect x="417.74" y="21.12" style="fill:#56525B;" width="30.905" height="30.905"/>
	<rect x="417.74" y="421.05" style="fill:#56525B;" width="30.905" height="30.905"/>
</g>
<g>
	<path style="fill:#55A1FB;" d="M63.356,496.547H32.451V15.453C32.451,6.918,39.369,0,47.903,0l0,0
		c8.534,0,15.453,6.918,15.453,15.453V496.547z"/>
	<path style="fill:#55A1FB;" d="M479.549,496.547h-30.905V15.453C448.644,6.918,455.562,0,464.097,0l0,0
		c8.534,0,15.453,6.918,15.453,15.453L479.549,496.547L479.549,496.547z"/>
</g>
<path style="fill:#A96458;" d="M496.547,512H15.453C6.918,512,0,505.082,0,496.547l0,0c0-8.534,6.918-15.453,15.453-15.453h481.095
	c8.534,0,15.453,6.918,15.453,15.453l0,0C512,505.082,505.082,512,496.547,512z"/>
<path style="fill:#895C62;" d="M496.547,481.095h-30.905c8.534,0,15.453,6.919,15.453,15.453s-6.918,15.453-15.453,15.453h30.905
	c8.534,0,15.453-6.919,15.453-15.453C512,488.013,505.082,481.095,496.547,481.095z"/>
<path style="fill:#27EEFF;" d="M167.92,164.314h-53.57c-7.965,0-14.423-6.457-14.423-14.423V96.322
	c0-7.965,6.457-14.423,14.423-14.423h53.569c7.965,0,14.423,6.457,14.423,14.423v53.569
	C182.342,157.857,175.885,164.314,167.92,164.314z"/>
<g>
	<path style="fill:#D3D3D3;" d="M397.65,164.314h-53.57c-7.965,0-14.423-6.457-14.423-14.423V96.322
		c0-7.965,6.457-14.423,14.423-14.423h53.569c7.965,0,14.423,6.457,14.423,14.423v53.569
		C412.072,157.857,405.615,164.314,397.65,164.314z"/>
	<path style="fill:#D3D3D3;" d="M282.785,164.314h-53.569c-7.965,0-14.423-6.457-14.423-14.423V96.322
		c0-7.965,6.457-14.423,14.423-14.423h53.569c7.965,0,14.423,6.457,14.423,14.423v53.569
		C297.207,157.857,290.75,164.314,282.785,164.314z"/>
	<path style="fill:#D3D3D3;" d="M167.92,278.664h-53.57c-7.965,0-14.423-6.457-14.423-14.423v-53.569
		c0-7.965,6.457-14.423,14.423-14.423h53.569c7.965,0,14.423,6.457,14.423,14.423v53.569
		C182.342,272.207,175.885,278.664,167.92,278.664z"/>
	<path style="fill:#D3D3D3;" d="M397.65,278.664h-53.57c-7.965,0-14.423-6.457-14.423-14.423v-53.569
		c0-7.965,6.457-14.423,14.423-14.423h53.569c7.965,0,14.423,6.457,14.423,14.423v53.569
		C412.072,272.207,405.615,278.664,397.65,278.664z"/>
</g>
<path style="fill:#27EEFF;" d="M282.785,278.664h-53.569c-7.965,0-14.423-6.457-14.423-14.423v-53.569
	c0-7.965,6.457-14.423,14.423-14.423h53.569c7.965,0,14.423,6.457,14.423,14.423v53.569
	C297.207,272.207,290.75,278.664,282.785,278.664z"/>
<path style="fill:#D3D3D3;" d="M167.92,393.014h-53.57c-7.965,0-14.423-6.457-14.423-14.423v-53.569
	c0-7.965,6.457-14.423,14.423-14.423h53.569c7.965,0,14.423,6.457,14.423,14.423v53.569
	C182.342,386.557,175.885,393.014,167.92,393.014z"/>
<path style="fill:#FF44AF;" d="M397.65,393.014h-53.57c-7.965,0-14.423-6.457-14.423-14.423v-53.569
	c0-7.965,6.457-14.423,14.423-14.423h53.569c7.965,0,14.423,6.457,14.423,14.423v53.569
	C412.072,386.557,405.615,393.014,397.65,393.014z"/>
<path style="fill:#D3D3D3;" d="M282.785,393.014h-53.569c-7.965,0-14.423-6.457-14.423-14.423v-53.569
	c0-7.965,6.457-14.423,14.423-14.423h53.569c7.965,0,14.423,6.457,14.423,14.423v53.569
	C297.207,386.557,290.75,393.014,282.785,393.014z"/>
<g>
	<path style="fill:#686370;" d="M141.135,100.606c-12.406,0-22.5,10.094-22.5,22.5s10.094,22.5,22.5,22.5s22.5-10.094,22.5-22.5
		S153.541,100.606,141.135,100.606z M141.135,130.606c-4.136,0-7.5-3.364-7.5-7.5s3.364-7.5,7.5-7.5s7.5,3.364,7.5,7.5
		S145.271,130.606,141.135,130.606z"/>
	<path style="fill:#686370;" d="M256,214.957c-12.406,0-22.5,10.094-22.5,22.5s10.094,22.5,22.5,22.5s22.5-10.094,22.5-22.5
		S268.406,214.957,256,214.957z M256,244.957c-4.136,0-7.5-3.364-7.5-7.5s3.364-7.5,7.5-7.5c4.136,0,7.5,3.364,7.5,7.5
		S260.136,244.957,256,244.957z"/>
	<path style="fill:#686370;" d="M381.473,351.807l9.696-9.696c2.929-2.93,2.929-7.678,0-10.607c-2.93-2.928-7.678-2.928-10.607,0
		l-9.696,9.696l-9.696-9.696c-2.93-2.928-7.678-2.928-10.607,0c-2.929,2.93-2.929,7.678,0,10.607l9.696,9.696l-9.696,9.696
		c-2.929,2.93-2.929,7.678,0,10.607c1.465,1.464,3.385,2.196,5.304,2.196s3.839-0.732,5.304-2.196l9.696-9.696l9.696,9.696
		c1.465,1.464,3.385,2.196,5.304,2.196s3.839-0.732,5.304-2.196c2.929-2.93,2.929-7.678,0-10.607L381.473,351.807z"/>
</g>
<g>
</g>
<g>
</g>
<g>
</g>
<g>
</g>
<g>
</g>
<g>
</g>
<g>
</g>
<g>
</g>
<g>
</g>
<g>
</g>
<g>
</g>
<g>
</g>
<g>
</g>
<g>
</g>
<g>
</g>
</svg>
